<svg width="103" height="80" viewBox="0 0 103 80" fill="none" xmlns="http://www.w3.org/2000/svg">
<rect opacity="0.5" x="1.60641" y="1.0588" width="99.9827" height="77.5477" rx="3.7977" stroke="#F0F0F0" stroke-width="1.89885"/>
<path d="M62.9862 39.8329C64.1944 39.8329 65.3531 40.3128 66.2074 41.1671C67.0617 42.0214 67.5416 43.1801 67.5416 44.3882V58.0544C67.5416 59.2626 67.0617 60.4212 66.2074 61.2756C65.3531 62.1299 64.1944 62.6098 62.9862 62.6098H40.2093C39.0011 62.6098 37.8424 62.1299 36.9881 61.2756C36.1338 60.4212 35.6539 59.2626 35.6539 58.0544V44.3882C35.6539 43.1801 36.1338 42.0214 36.9881 41.1671C37.8424 40.3128 39.0011 39.8328 40.2093 39.8329V28.4444C40.2093 25.424 41.4091 22.5273 43.5449 20.3915C45.6806 18.2558 48.5773 17.0559 51.5978 17.0559C54.6182 17.0559 57.5149 18.2558 59.6506 20.3915C61.7864 22.5273 62.9862 25.424 62.9862 28.4444V39.8329ZM51.5978 55.7767C52.8059 55.7767 53.9646 55.2968 54.8189 54.4425C55.6732 53.5882 56.1531 52.4295 56.1531 51.2213C56.1531 50.0132 55.6732 48.8545 54.8189 48.0002C53.9646 47.1459 52.8059 46.6659 51.5978 46.6659C50.3896 46.6659 49.2309 47.1459 48.3766 48.0002C47.5223 48.8545 47.0424 50.0132 47.0424 51.2213C47.0424 52.4295 47.5223 53.5882 48.3766 54.4425C49.2309 55.2968 50.3896 55.7767 51.5978 55.7767ZM58.4308 39.8329V28.4444C58.4308 26.6321 57.7109 24.8941 56.4295 23.6127C55.148 22.3312 53.41 21.6113 51.5978 21.6113C49.7855 21.6113 48.0475 22.3312 46.766 23.6127C45.4846 24.8941 44.7647 26.6321 44.7647 28.4444V39.8329H58.4308Z" fill="url(#paint0_linear_1_468)"/>
<rect opacity="0.5" x="21.5493" y="8.15186" width="60.7536" height="58.4305" fill="white"/>
<defs>
<linearGradient id="paint0_linear_1_468" x1="51.5978" y1="17.0559" x2="51.5978" y2="62.6098" gradientUnits="userSpaceOnUse">
<stop stop-color="#FFD5B7"/>
<stop offset="1" stop-color="#FFAB6D"/>
</linearGradient>
</defs>
</svg>
